<svg width="28" height="28" viewBox="0 0 28 28" fill="none" xmlns="http://www.w3.org/2000/svg">
<path fill-rule="evenodd" clip-rule="evenodd" d="M10.6834 24.2333V20.6555C10.6834 19.7455 11.4253 19.006 12.3445 18.9999H15.7116C16.6352 18.9999 17.3839 19.7411 17.3839 20.6555V24.2445C17.3837 25.0171 18.0066 25.6486 18.7869 25.6667H21.0316C23.2693 25.6667 25.0833 23.8708 25.0833 21.6555V11.4775C25.0714 10.606 24.6581 9.78761 23.961 9.25525L16.284 3.13289C14.9391 2.06687 13.0272 2.06687 11.6823 3.13289L4.03903 9.26636C3.33931 9.79657 2.92529 10.6163 2.91667 11.4886V21.6555C2.91667 23.8708 4.73069 25.6667 6.9684 25.6667H9.21313C10.0128 25.6667 10.661 25.025 10.661 24.2333" fill="#67C4A7"/>
<path d="M10.6834 24.2333V20.6555C10.6834 19.7455 11.4253 19.006 12.3445 18.9999H15.7116C16.6352 18.9999 17.3839 19.7411 17.3839 20.6555V20.6555V24.2445C17.3837 25.0171 18.0066 25.6486 18.7869 25.6667H21.0316C23.2693 25.6667 25.0833 23.8708 25.0833 21.6555V21.6555V11.4775C25.0714 10.606 24.6581 9.78761 23.961 9.25525L16.284 3.13289C14.9391 2.06687 13.0272 2.06687 11.6823 3.13289L4.03903 9.26636C3.33931 9.79657 2.92529 10.6163 2.91667 11.4886V21.6555C2.91667 23.8708 4.73069 25.6667 6.9684 25.6667H9.21313C10.0128 25.6667 10.661 25.025 10.661 24.2333V24.2333" stroke="#939393" stroke-width="1.5" stroke-linecap="round" stroke-linejoin="round"/>
</svg>
