<svg width="28" height="28" viewBox="0 0 28 28" fill="none" xmlns="http://www.w3.org/2000/svg">
<path d="M10.6834 24.2332V20.6554C10.6834 19.7453 11.4253 19.0059 12.3445 18.9998H15.7116C16.6352 18.9998 17.3839 19.741 17.3839 20.6554V20.6554V24.2443C17.3837 25.017 18.0066 25.6485 18.7869 25.6666H21.0316C23.2693 25.6666 25.0833 23.8707 25.0833 21.6554V21.6554V11.4774C25.0714 10.6059 24.658 9.78749 23.961 9.25512L16.284 3.13277C14.9391 2.06675 13.0272 2.06675 11.6823 3.13277L4.03902 9.26623C3.33929 9.79644 2.92527 10.6162 2.91666 11.4885V21.6554C2.91666 23.8707 4.73068 25.6666 6.96839 25.6666H9.21311C10.0127 25.6666 10.661 25.0248 10.661 24.2332V24.2332" stroke="#939393" stroke-width="1.5" stroke-linecap="round" stroke-linejoin="round"/>
</svg>
