<svg width="28" height="28" viewBox="0 0 28 28" fill="none" xmlns="http://www.w3.org/2000/svg">
<circle cx="13.5088" cy="8.49112" r="5.57437" fill="#67C4A7" stroke="#939393" stroke-width="1.5" stroke-linecap="round" stroke-linejoin="round"/>
<path fill-rule="evenodd" clip-rule="evenodd" d="M4.66671 21.8182C4.66521 21.4264 4.75285 21.0393 4.923 20.6863C5.45694 19.6184 6.96266 19.0524 8.21209 18.7961C9.11318 18.6038 10.0267 18.4754 10.9459 18.4117C12.6477 18.2622 14.3593 18.2622 16.0611 18.4117C16.9802 18.4761 17.8936 18.6045 18.7949 18.7961C20.0443 19.0524 21.55 19.565 22.0839 20.6863C22.4261 21.4059 22.4261 22.2413 22.0839 22.9609C21.55 24.0822 20.0443 24.5947 18.7949 24.8404C17.8948 25.0406 16.981 25.1727 16.0611 25.2355C14.6759 25.3529 13.2844 25.3743 11.8963 25.2995C11.5759 25.2995 11.2662 25.2995 10.9459 25.2355C10.0294 25.1735 9.11906 25.0414 8.22277 24.8404C6.96266 24.5947 5.46762 24.0822 4.923 22.9609C4.75372 22.6038 4.66616 22.2134 4.66671 21.8182Z" fill="#67C4A7" stroke="#939393" stroke-width="1.5" stroke-linecap="round" stroke-linejoin="round"/>
</svg>
