<svg width="28" height="28" viewBox="0 0 28 28" fill="none" xmlns="http://www.w3.org/2000/svg">
<path fill-rule="evenodd" clip-rule="evenodd" d="M17.1928 3.22217H9.43101C7.02884 3.22217 4.95801 5.16933 4.95801 7.57267V20.0712C4.95801 22.6098 6.89351 24.634 9.43101 24.634H18.7515C21.1548 24.634 23.102 22.4757 23.102 20.0712V9.3775L17.1928 3.22217Z" fill="#67C4A7" stroke="#939393" stroke-width="1.5" stroke-linecap="round" stroke-linejoin="round"/>
<path fill-rule="evenodd" clip-rule="evenodd" d="M16.8864 3.2085V6.60233C16.8864 8.259 18.2269 9.603 19.8824 9.6065C21.4189 9.61 22.9904 9.61116 23.0965 9.60416" fill="#67C4A7"/>
<path d="M16.8864 3.2085V6.60233C16.8864 8.259 18.2269 9.603 19.8824 9.6065C21.4189 9.61 22.9904 9.61116 23.0965 9.60416" stroke="#939393" stroke-width="1.5" stroke-linecap="round" stroke-linejoin="round"/>
<path fill-rule="evenodd" clip-rule="evenodd" d="M16.6647 18.1507H10.3682H16.6647Z" fill="#67C4A7"/>
<path d="M16.6647 18.1507H10.3682" stroke="#939393" stroke-width="1.5" stroke-linecap="round" stroke-linejoin="round"/>
<path fill-rule="evenodd" clip-rule="evenodd" d="M14.2829 12.3731H10.3676H14.2829Z" fill="#67C4A7"/>
<path d="M14.2829 12.3731H10.3676" stroke="#939393" stroke-width="1.5" stroke-linecap="round" stroke-linejoin="round"/>
</svg>
